<svg xmlns="http://www.w3.org/2000/svg" viewBox="0 0 765 656.75"><title>Asset 1</title><path d="M60.59,1.46C48.84,4.14,33.89,11.1,24.72,18.29-20.13,53.63-1,114.12,59.94,129c9.17,2.18,23.49,2.31,322.48,2.31s313.32-.13,322.48-2.31c45.68-11.18,70.77-49.72,55.49-85.17-7.55-17.34-21.07-29.42-42.79-38L703.62.3,385.8,0C133-.08,66.54.18,60.59,1.46Z" fill="#fff"/><path d="M65.73,263.14c-13.51,2.06-30.21,9.51-41.18,18.24-28,22.36-32.49,55.75-11.25,82.47,10.91,13.74,32.17,25.46,51.94,28.78,12.07,2.06,622.29,2.06,634.36,0,30.21-5,55.81-25.46,63.21-50.1,9.49-32.25-12.59-64.1-53.08-77.06l-9.65-3.08-313.65-.13C211.62,262.11,69.59,262.5,65.73,263.14Z" fill="#fff"/><path d="M64,526c-15,2.31-35.87,13-46.34,23.76C-17.93,586.59,2.82,640,58.16,653.92l11.44,2.83H695.26l11.42-2.83c22.2-5.65,39.43-17.6,49.7-34.55,21.07-34.43,1.12-75.28-44.23-90.7l-8.84-3-317.66-.13C211,525.45,66.21,525.72,64,526Z" fill="#fff"/></svg>