<svg xmlns="http://www.w3.org/2000/svg" viewBox="0 0 52 52"><title>Asset 1</title><circle cx="26" cy="26" r="26" fill="#e4405f"/><path d="M26,10c-4.35,0-4.89,0-6.6.1a11.74,11.74,0,0,0-3.88.74,8.18,8.18,0,0,0-4.68,4.68,11.74,11.74,0,0,0-.74,3.88C10,21.11,10,21.66,10,26s0,4.89.1,6.6a11.74,11.74,0,0,0,.74,3.88,8.18,8.18,0,0,0,4.68,4.68,11.74,11.74,0,0,0,3.88.74c1.71.08,2.25.1,6.6.1s4.89,0,6.6-.1a11.74,11.74,0,0,0,3.88-.74,7.77,7.77,0,0,0,2.83-1.85,7.87,7.87,0,0,0,1.85-2.83,11.45,11.45,0,0,0,.74-3.88c.08-1.71.1-2.25.1-6.6s0-4.89-.1-6.6a11.45,11.45,0,0,0-.74-3.88,7.87,7.87,0,0,0-1.85-2.83,7.77,7.77,0,0,0-2.83-1.85,11.74,11.74,0,0,0-3.88-.74C30.89,10,30.35,10,26,10Zm0,2.88c4.27,0,4.78,0,6.47.09a8.88,8.88,0,0,1,3,.55,5,5,0,0,1,1.84,1.2,4.94,4.94,0,0,1,1.19,1.84,8.81,8.81,0,0,1,.55,3c.08,1.69.1,2.19.1,6.46s0,4.78-.1,6.46a8.8,8.8,0,0,1-.55,3,4.94,4.94,0,0,1-1.19,1.84,5,5,0,0,1-1.84,1.2,8.88,8.88,0,0,1-3,.55c-1.69.08-2.2.09-6.47.09s-4.78,0-6.47-.09a8.84,8.84,0,0,1-3-.55,5.3,5.3,0,0,1-3-3,8.85,8.85,0,0,1-.55-3c-.08-1.69-.09-2.19-.09-6.46s0-4.78.09-6.46a8.85,8.85,0,0,1,.55-3,5.3,5.3,0,0,1,3-3,8.84,8.84,0,0,1,3-.55C21.22,12.9,21.73,12.88,26,12.88Zm0,4.9A8.22,8.22,0,1,0,34.22,26,8.22,8.22,0,0,0,26,17.78h0Zm0,13.55A5.33,5.33,0,1,1,31.33,26h0A5.33,5.33,0,0,1,26,31.33h0ZM36.46,17.46a1.92,1.92,0,1,1-1.92-1.92h0a1.92,1.92,0,0,1,1.92,1.92h0Z" fill="#fff"/></svg>